<svg width="292" height="292" viewBox="0 0 292 292" fill="none" xmlns="http://www.w3.org/2000/svg">
<path d="M291.024 145.512C291.024 65.1479 225.876 0 145.512 0C65.1479 0 0 65.1479 0 145.512C0 225.876 65.1479 291.024 145.512 291.024C225.876 291.024 291.024 225.876 291.024 145.512Z" fill="#06054B"/>
<path d="M155.963 103.859C157.87 101.952 156.26 97.2489 152.367 93.3552C148.473 89.4614 143.77 87.8514 141.862 89.759L73.1085 158.513C71.2008 160.421 72.8109 165.124 76.7046 169.017C80.5983 172.911 85.3012 174.521 87.2089 172.614L155.963 103.859Z" fill="#1C45FC"/>
<path d="M114.577 102.245C115.381 101.44 112.877 97.632 108.983 93.7382C105.089 89.8445 101.281 87.3399 100.477 88.144L71.4936 117.127C70.6895 117.931 73.1941 121.74 77.0878 125.634C80.9815 129.527 84.7899 132.032 85.5941 131.228L114.577 102.245Z" fill="#00F5BB"/>
<path fill-rule="evenodd" clip-rule="evenodd" d="M196.122 109.002L90.0847 215.041C86.2063 218.918 79.8626 218.918 75.9842 215.041L75.9833 215.04C72.1049 211.163 72.1049 204.818 75.9833 200.939L182.021 94.9007L172.398 85.2777L195.175 79.175L217.95 73.0723L211.847 95.8483L205.745 118.625L196.122 109.002Z" fill="#FFCC00"/>
<path d="M187.165 135.061C189.072 133.154 193.775 134.764 197.669 138.658C201.563 142.551 203.173 147.254 201.265 149.162L132.511 217.916C130.604 219.823 125.901 218.213 122.007 214.32C118.113 210.426 116.503 205.723 118.411 203.815L187.165 135.061Z" fill="#1C45FC"/>
<path d="M188.779 176.447C189.583 175.643 193.391 178.147 197.285 182.041C201.179 185.935 203.683 189.743 202.879 190.547L173.896 219.53C173.092 220.335 169.283 217.83 165.39 213.936C161.496 210.043 158.991 206.234 159.796 205.43L188.779 176.447Z" fill="#00F5BB"/>
</svg>
